<svg width="540" height="377" viewBox="0 0 540 377" fill="none" xmlns="http://www.w3.org/2000/svg">
<rect width="540" height="377" rx="60" fill="#2C1F4A"/>
<rect x="13" y="13" width="514" height="351" rx="45" fill="white"/>
<path d="M43 43C43 37.4772 47.4772 33 53 33H123C128.523 33 133 37.4772 133 43V68C133 73.5228 128.523 78 123 78H53C47.4772 78 43 73.5228 43 68V43Z" fill="url(#paint0_linear_106_1965)"/>
<rect x="407" y="33" width="90" height="45" rx="10" fill="#230E36"/>
<path d="M13 102H527V291H13V102Z" fill="#2192DC"/>
<circle cx="259" cy="167" r="142" fill="#251944"/>
<circle cx="259.5" cy="167.5" r="131.5" fill="white"/>
<circle cx="259" cy="167" r="118" fill="#251944"/>
<circle cx="259" cy="167" r="109" fill="#FF9813"/>
<ellipse cx="259.5" cy="167.5" rx="90.5" ry="89.5" fill="white"/>
<ellipse cx="259.5" cy="167.5" rx="70.5" ry="69.5" fill="#251944"/>
<ellipse cx="259.5" cy="167.5" rx="63.5" ry="62.5" fill="#0FA6E7"/>
<path d="M313 167.5C313 196.495 289.047 220 259.5 220C229.953 220 206 196.495 206 167.5C206 138.505 229.953 115 259.5 115C289.047 115 313 138.505 313 167.5Z" fill="#251944"/>
<path d="M278 167C278 176.941 269.717 185 259.5 185C249.283 185 241 176.941 241 167C241 157.059 249.283 149 259.5 149C269.717 149 278 157.059 278 167Z" fill="white"/>
<path d="M96.25 352V317.091H111.318C113.909 317.091 116.176 317.562 118.119 318.506C120.063 319.449 121.574 320.807 122.653 322.58C123.733 324.352 124.273 326.477 124.273 328.955C124.273 331.455 123.716 333.562 122.602 335.278C121.5 336.994 119.949 338.29 117.949 339.165C115.96 340.04 113.636 340.477 110.977 340.477H101.977V333.114H109.068C110.182 333.114 111.131 332.977 111.915 332.705C112.71 332.42 113.318 331.972 113.739 331.358C114.17 330.744 114.386 329.943 114.386 328.955C114.386 327.955 114.17 327.142 113.739 326.517C113.318 325.881 112.71 325.415 111.915 325.119C111.131 324.812 110.182 324.659 109.068 324.659H105.727V352H96.25ZM116.705 335.977L125.432 352H115.136L106.614 335.977H116.705ZM136.472 352V317.091H161.632V324.727H145.95V330.727H160.336V338.364H145.95V344.364H161.563V352H136.472ZM207.083 330.182H197.469C197.401 329.386 197.219 328.665 196.924 328.017C196.64 327.369 196.242 326.812 195.731 326.347C195.231 325.869 194.623 325.506 193.907 325.256C193.191 324.994 192.378 324.864 191.469 324.864C189.878 324.864 188.532 325.25 187.429 326.023C186.338 326.795 185.509 327.903 184.941 329.347C184.384 330.79 184.106 332.523 184.106 334.545C184.106 336.682 184.39 338.472 184.958 339.915C185.537 341.347 186.373 342.426 187.463 343.153C188.554 343.869 189.867 344.227 191.401 344.227C192.276 344.227 193.06 344.119 193.753 343.903C194.446 343.676 195.049 343.352 195.56 342.932C196.071 342.511 196.486 342.006 196.804 341.415C197.134 340.812 197.356 340.136 197.469 339.386L207.083 339.455C206.969 340.932 206.554 342.437 205.838 343.972C205.123 345.494 204.106 346.903 202.787 348.199C201.481 349.483 199.861 350.517 197.929 351.301C195.998 352.085 193.753 352.477 191.196 352.477C187.992 352.477 185.117 351.79 182.571 350.415C180.037 349.04 178.032 347.017 176.554 344.347C175.088 341.676 174.356 338.409 174.356 334.545C174.356 330.659 175.106 327.386 176.606 324.727C178.106 322.057 180.128 320.04 182.674 318.676C185.219 317.301 188.06 316.614 191.196 316.614C193.401 316.614 195.429 316.915 197.282 317.517C199.134 318.119 200.759 319 202.157 320.159C203.554 321.307 204.679 322.722 205.532 324.403C206.384 326.085 206.901 328.011 207.083 330.182ZM253.361 334.545C253.361 338.432 252.605 341.71 251.094 344.381C249.582 347.04 247.542 349.057 244.974 350.432C242.406 351.795 239.542 352.477 236.383 352.477C233.202 352.477 230.327 351.79 227.758 350.415C225.202 349.028 223.167 347.006 221.656 344.347C220.156 341.676 219.406 338.409 219.406 334.545C219.406 330.659 220.156 327.386 221.656 324.727C223.167 322.057 225.202 320.04 227.758 318.676C230.327 317.301 233.202 316.614 236.383 316.614C239.542 316.614 242.406 317.301 244.974 318.676C247.542 320.04 249.582 322.057 251.094 324.727C252.605 327.386 253.361 330.659 253.361 334.545ZM243.611 334.545C243.611 332.455 243.332 330.693 242.775 329.261C242.23 327.818 241.417 326.727 240.338 325.989C239.27 325.239 237.952 324.864 236.383 324.864C234.815 324.864 233.491 325.239 232.412 325.989C231.344 326.727 230.531 327.818 229.974 329.261C229.429 330.693 229.156 332.455 229.156 334.545C229.156 336.636 229.429 338.403 229.974 339.847C230.531 341.278 231.344 342.369 232.412 343.119C233.491 343.858 234.815 344.227 236.383 344.227C237.952 344.227 239.27 343.858 240.338 343.119C241.417 342.369 242.23 341.278 242.775 339.847C243.332 338.403 243.611 336.636 243.611 334.545ZM265.906 352V317.091H280.974C283.565 317.091 285.832 317.562 287.775 318.506C289.718 319.449 291.229 320.807 292.309 322.58C293.389 324.352 293.928 326.477 293.928 328.955C293.928 331.455 293.372 333.562 292.258 335.278C291.156 336.994 289.604 338.29 287.604 339.165C285.616 340.04 283.292 340.477 280.633 340.477H271.633V333.114H278.724C279.837 333.114 280.786 332.977 281.57 332.705C282.366 332.42 282.974 331.972 283.394 331.358C283.826 330.744 284.042 329.943 284.042 328.955C284.042 327.955 283.826 327.142 283.394 326.517C282.974 325.881 282.366 325.415 281.57 325.119C280.786 324.812 279.837 324.659 278.724 324.659H275.383V352H265.906ZM286.36 335.977L295.087 352H284.792L276.269 335.977H286.36ZM319.56 352H306.128V317.091H319.424C323.014 317.091 326.117 317.79 328.73 319.188C331.355 320.574 333.378 322.574 334.799 325.188C336.23 327.79 336.946 330.909 336.946 334.545C336.946 338.182 336.236 341.307 334.816 343.92C333.395 346.523 331.384 348.523 328.782 349.92C326.179 351.307 323.105 352 319.56 352ZM315.605 343.955H319.219C320.946 343.955 322.418 343.676 323.634 343.119C324.861 342.562 325.793 341.602 326.429 340.239C327.077 338.875 327.401 336.977 327.401 334.545C327.401 332.114 327.071 330.216 326.412 328.852C325.764 327.489 324.81 326.528 323.549 325.972C322.299 325.415 320.764 325.136 318.946 325.136H315.605V343.955ZM356.356 352H346.129L357.652 317.091H370.606L382.129 352H371.902L364.265 326.705H363.993L356.356 352ZM354.447 338.227H373.674V345.318H354.447V338.227ZM388.657 317.091H399.225L406.043 331.273H406.316L413.134 317.091H423.702L410.884 341.023V352H401.475V341.023L388.657 317.091Z" fill="black"/>
<path d="M414 46C414 43.2386 416.239 41 419 41H486C488.761 41 491 43.2386 491 46V65C491 67.7614 488.761 70 486 70H419C416.239 70 414 67.7614 414 65V46Z" fill="#20B6E3"/>
<defs>
<linearGradient id="paint0_linear_106_1965" x1="43" y1="55" x2="133" y2="55" gradientUnits="userSpaceOnUse">
<stop offset="0.0268716" stop-color="#E64254"/>
<stop offset="0.348941" stop-color="#CA3745"/>
<stop offset="0.635326" stop-color="#F0502B"/>
<stop offset="0.817861" stop-color="#F7D645"/>
</linearGradient>
</defs>
</svg>
